# xmcd CD database file
#
# Track frame offsets:
#	150
#	29214
#	58979
#	86139
#	111580
#	177124
#
# Disc length: 3395 seconds
#
# Revision: 2
# Processed by: cddbd v1.5.2PL0 Copyright (c) Steve Scherf et al.
# Submitted via: CDex 1.51
#
DISCID=590d4106
DTITLE=Dave Fiester Ant The Groove Monsters - Jammin Live
DYEAR=1995
DGENRE=Blues
TTITLE0=Squeeze Me
TTITLE1=Don't Burn Down The Bridge
TTITLE2=Help Me
TTITLE3=Love Her With A Feeling
TTITLE4=Meantown Blues
TTITLE5=You Know It Aint Right - Harp Boogie
EXTD=Local Brevard County Florida Band YEAR: 1995
EXTT0=
EXTT1=
EXTT2=
EXTT3=
EXTT4=
EXTT5=
PLAYORDER=
